<?xml version="1.0" standalone="no"?>
<!DOCTYPE svg PUBLIC "-//W3C//DTD SVG 20010904//EN"
 "http://www.w3.org/TR/2001/REC-SVG-20010904/DTD/svg10.dtd">
<svg version="1.0" xmlns="http://www.w3.org/2000/svg"
 width="621.000000pt" height="621.000000pt" viewBox="0 0 621.000000 621.000000"
 preserveAspectRatio="xMidYMid meet">
<metadata>
Created by potrace 1.11, written by Peter Selinger 2001-2013
</metadata>
<g transform="translate(0.000000,621.000000) scale(0.100000,-0.100000)"
fill="#000000" stroke="none">
<path d="M4140 6159 c-19 -5 -42 -11 -50 -13 -8 -3 -85 -30 -170 -61 -85 -32
-195 -72 -245 -90 -49 -18 -198 -72 -330 -120 -132 -48 -249 -87 -260 -88 -17
0 -729 255 -790 283 -11 6 -69 26 -130 46 -144 48 -250 51 -364 11 -184 -64
-275 -171 -361 -422 l-33 -95 -166 -1 c-186 -1 -203 -3 -279 -29 -148 -52
-269 -173 -316 -318 -25 -74 -28 -99 -30 -246 -1 -103 -4 -130 -16 -137 -8 -5
-78 -31 -154 -59 -162 -60 -185 -70 -249 -119 -129 -97 -200 -255 -193 -426 5
-100 -5 -71 291 -880 80 -220 147 -407 147 -415 1 -8 -17 -64 -39 -125 -23
-60 -80 -218 -128 -350 -48 -132 -103 -283 -122 -335 -19 -52 -37 -102 -39
-112 -2 -10 -7 -28 -10 -41 -4 -12 -8 -54 -9 -93 -6 -129 42 -257 133 -355 79
-86 127 -113 343 -193 l46 -17 0 -147 c0 -166 14 -239 64 -332 58 -109 190
-213 314 -250 22 -6 101 -13 175 -16 74 -3 136 -7 138 -9 2 -2 25 -62 52 -134
26 -71 62 -152 79 -179 63 -99 165 -177 285 -217 55 -19 176 -26 238 -15 26 5
290 98 587 205 l539 196 443 -161 c760 -277 682 -252 787 -255 145 -5 269 40
367 132 80 75 110 127 175 308 24 66 45 121 46 123 1 2 66 4 145 6 159 4 218
17 309 69 117 67 213 198 246 339 4 13 7 98 8 190 2 93 5 169 7 171 2 2 40 16
84 32 125 44 192 81 255 143 106 104 160 242 153 390 -3 77 -23 142 -141 467
-169 463 -202 556 -202 563 0 7 236 661 349 967 82 221 84 229 87 322 4 143
-40 261 -134 364 -66 72 -135 112 -294 170 -73 27 -139 52 -147 57 -11 6 -14
43 -16 162 -2 85 -6 165 -9 178 -3 12 -8 32 -11 45 -22 103 -146 252 -255 307
-97 49 -147 58 -345 59 -99 1 -182 5 -186 9 -3 4 -27 66 -54 137 -53 143 -93
212 -159 273 -98 91 -198 132 -331 138 -49 2 -106 -1 -125 -7z m257 -57 c117
-45 216 -130 266 -228 22 -45 97 -243 97 -258 0 -3 -270 -6 -599 -6 l-599 0
-109 39 c-259 93 -293 106 -293 111 0 3 24 14 53 24 28 10 99 35 157 57 439
161 722 263 765 274 69 19 197 12 262 -13z m-2297 -8 c30 -8 64 -19 75 -24 11
-5 146 -54 300 -110 459 -166 499 -181 525 -192 23 -9 13 -14 -100 -55 -69
-24 -160 -58 -203 -74 l-79 -29 -584 0 c-321 0 -584 2 -584 4 0 10 84 224 101
258 28 55 94 125 154 163 123 79 252 98 395 59z m1165 -421 c83 -30 152 -57
154 -59 2 -2 -148 -4 -335 -3 -299 0 -335 2 -304 14 156 61 308 113 320 109 8
-3 83 -30 165 -61z m-1916 -215 c-82 -229 -120 -334 -128 -346 -8 -13 -551
-215 -559 -208 -5 6 -4 245 2 271 14 63 22 86 49 140 34 68 121 158 188 194
85 46 152 59 326 60 l163 2 -41 -113z m1126 102 c-20 -9 -160 -61 -435 -159
-80 -29 -179 -65 -220 -81 -41 -16 -158 -58 -260 -95 -102 -36 -196 -71 -210
-77 -14 -6 -37 -14 -51 -18 l-26 -8 29 82 c16 44 52 145 80 224 l52 142 530
-1 c326 0 523 -4 511 -9z m1167 -24 c51 -19 192 -71 313 -114 886 -322 1008
-368 1017 -383 4 -8 34 -88 67 -179 100 -279 419 -1157 479 -1315 l56 -150 -1
-420 0 -420 -46 -120 c-25 -66 -102 -277 -172 -470 -70 -192 -140 -384 -155
-425 -15 -41 -46 -127 -69 -191 l-42 -115 -147 -53 c-81 -29 -156 -57 -167
-61 -11 -5 -60 -23 -110 -40 -49 -18 -101 -36 -115 -42 -14 -5 -124 -46 -245
-89 -121 -44 -227 -82 -235 -86 -8 -3 -19 -7 -25 -9 -5 -1 -127 -46 -270 -100
l-260 -97 -417 -2 -416 -2 -399 144 c-219 79 -407 148 -418 153 -11 5 -51 20
-90 33 -275 97 -632 230 -641 240 -6 7 -116 301 -244 655 l-233 643 1 462 1
462 295 809 c163 445 301 813 308 817 7 4 46 20 88 34 41 15 109 40 150 55 41
16 158 58 260 95 102 36 201 72 220 80 19 8 170 63 335 124 l300 109 467 1
468 1 92 -34z m1152 -8 c89 -237 152 -418 145 -418 -9 0 -202 68 -269 95 -19
8 -93 35 -165 61 -71 25 -170 61 -220 79 -470 172 -582 213 -595 218 -8 3 233
6 537 6 l551 1 16 -42z m423 25 c160 -42 280 -154 333 -313 19 -54 23 -91 24
-212 1 -82 0 -148 -3 -148 -8 0 -195 67 -498 178 l-72 26 -37 101 c-20 55 -58
159 -85 232 -27 72 -49 136 -49 143 0 17 315 12 387 -7z m-4284 -1241 c-147
-402 -269 -732 -272 -732 -3 0 -6 287 -5 637 l1 636 269 98 c148 53 270 96
271 95 1 -1 -118 -331 -264 -734z m4372 619 l270 -99 0 -656 c0 -360 -3 -652
-6 -648 -3 4 -29 72 -58 152 -29 80 -58 161 -66 180 -11 29 -96 263 -391 1078
-19 50 -30 92 -26 92 4 0 128 -45 277 -99z m-4690 -793 l0 -703 -70 -192 c-39
-106 -73 -193 -76 -193 -3 0 -99 257 -213 571 -191 525 -208 577 -211 648 -7
139 34 255 124 351 68 71 115 97 289 161 86 32 157 58 158 58 0 1 0 -315 -1
-701z m5210 604 c51 -14 155 -78 203 -125 57 -56 115 -160 131 -236 16 -75 6
-178 -27 -276 -16 -49 -98 -277 -182 -505 -84 -228 -163 -448 -177 -488 -14
-40 -26 -72 -28 -70 -1 2 -23 62 -49 133 -26 72 -54 148 -63 170 -14 35 -16
131 -17 756 l-1 716 95 -35 c52 -19 104 -37 115 -40z m-5209 -1762 c0 -187 -1
-340 -3 -340 -1 0 -6 15 -12 33 -5 17 -26 75 -46 127 -70 185 -68 172 -41 243
13 34 41 110 63 169 21 60 38 108 39 108 0 0 0 -153 0 -340z m5029 213 c9 -27
23 -64 31 -83 7 -19 21 -58 30 -86 l17 -51 -48 -129 c-26 -71 -50 -132 -54
-136 -3 -4 -6 114 -6 262 0 149 3 270 7 270 3 0 14 -21 23 -47z m-5100 -483
l69 -185 1 -557 c1 -307 -2 -558 -6 -558 -12 0 -149 50 -199 73 -133 61 -231
183 -265 329 -14 62 -13 164 1 213 10 31 214 597 224 620 4 11 28 75 52 142
24 67 46 119 49 115 4 -4 37 -90 74 -192z m5351 -206 c80 -219 153 -423 161
-453 16 -58 20 -153 10 -211 -23 -131 -124 -272 -236 -330 -41 -20 -196 -80
-209 -80 -4 0 -7 256 -6 568 l0 568 64 172 c35 95 65 171 66 169 2 -2 69 -183
150 -403z m-321 -579 c0 -322 -4 -507 -10 -514 -13 -12 -405 -153 -414 -149
-7 3 43 142 275 778 31 85 72 198 91 250 37 105 51 140 55 140 2 0 3 -227 3
-505z m-4860 315 c8 -19 35 -93 60 -165 26 -71 62 -170 80 -220 80 -215 222
-610 220 -613 -1 -1 -90 29 -198 68 -107 38 -200 70 -206 70 -6 0 -11 10 -12
23 -1 41 0 891 1 937 l1 45 20 -55 c11 -30 26 -71 34 -90z m4859 -1022 c-2
-183 -5 -203 -48 -293 -57 -121 -149 -203 -276 -246 -51 -17 -93 -22 -197 -24
l-131 -3 23 66 c48 139 165 458 173 471 4 8 109 51 232 97 124 45 225 83 225
83 1 1 0 -68 -1 -151z m-4760 71 c78 -27 150 -54 161 -59 11 -4 43 -16 72 -26
45 -15 53 -22 67 -58 48 -131 176 -485 176 -490 0 -10 -236 2 -280 14 -142 39
-270 153 -319 285 -29 76 -32 102 -32 240 -1 144 -1 145 8 145 3 0 70 -23 147
-51z m4232 -171 c-13 -35 -56 -153 -96 -264 l-72 -201 -631 0 c-396 0 -622 3
-607 9 83 31 924 338 1025 374 39 13 142 51 230 84 88 32 163 59 167 59 4 1
-3 -27 -16 -61z m-3560 -74 c176 -64 366 -133 424 -154 209 -75 635 -231 637
-234 2 -2 -270 -2 -603 -2 l-606 1 -23 60 c-13 33 -44 116 -69 185 -24 70 -56
156 -70 193 -14 37 -21 67 -17 67 5 0 152 -52 327 -116z m1360 -495 c96 -34
172 -65 169 -67 -7 -7 -950 -350 -1013 -368 -196 -58 -403 19 -524 194 -17 25
-52 102 -78 171 -44 117 -46 126 -28 131 11 3 307 4 660 3 l641 -1 173 -63z
m509 59 c6 -5 -247 -98 -265 -98 -9 0 -76 22 -150 49 -94 34 -127 50 -110 52
33 5 521 2 525 -3z m1501 0 c4 -5 -65 -196 -93 -258 -61 -132 -197 -234 -346
-260 -121 -21 -148 -14 -698 186 -283 102 -527 191 -543 197 -28 10 -24 12 80
49 60 21 132 48 159 60 28 11 75 24 105 27 62 7 1329 5 1336 -1z"/>
<path d="M2976 5093 c-1 -1 -47 -5 -102 -8 -54 -3 -118 -7 -141 -10 -24 -3
-64 -7 -90 -10 -522 -59 -1024 -298 -1234 -588 -100 -137 -139 -252 -144 -427
-9 -287 109 -529 340 -700 137 -101 414 -222 608 -265 10 -2 26 -6 35 -9 9 -3
35 -8 57 -12 22 -3 43 -8 47 -10 7 -5 146 -31 198 -38 19 -3 51 -7 70 -10 87
-14 320 -46 365 -51 54 -6 213 -25 338 -40 36 -5 302 -48 361 -59 124 -23 286
-73 381 -116 184 -86 270 -211 278 -406 9 -203 -105 -365 -341 -484 -153 -77
-347 -128 -597 -157 -139 -16 -723 -7 -755 12 -3 1 -30 6 -60 9 -51 6 -69 9
-125 20 -11 2 -40 7 -65 12 -25 4 -47 8 -50 9 -3 1 -18 4 -35 8 -16 4 -40 10
-52 12 -13 3 -33 7 -45 10 -80 17 -329 94 -431 132 -133 49 -347 150 -442 208
-33 20 -71 37 -85 38 l-25 2 0 -310 0 -309 90 -28 c172 -54 501 -141 581 -154
22 -3 42 -8 45 -10 7 -4 285 -50 352 -58 263 -32 403 -40 717 -40 230 0 422 7
490 18 14 2 66 10 115 16 75 10 145 23 245 45 221 48 523 172 695 286 95 63
246 210 303 295 135 202 176 367 147 604 -9 76 -47 194 -83 259 -124 225 -389
390 -805 501 -128 34 -209 50 -477 95 -39 7 -220 33 -270 40 -41 5 -85 11
-150 20 -22 3 -91 12 -157 20 -13 2 -40 6 -60 9 -21 3 -58 8 -83 12 -85 11
-95 13 -195 28 -208 32 -324 61 -454 113 -194 78 -291 182 -326 350 -45 216
40 383 264 512 123 71 320 136 476 157 28 3 53 8 56 10 12 7 229 18 364 18
160 0 314 -9 430 -24 44 -6 98 -13 120 -15 60 -7 237 -43 370 -77 215 -53 411
-124 593 -214 95 -47 179 -83 187 -80 13 5 15 46 13 292 l-3 287 -69 24 c-145
48 -540 138 -746 169 -19 3 -46 7 -60 9 -14 2 -47 7 -75 11 -27 3 -57 8 -66 9
-8 2 -51 6 -95 10 -43 3 -97 8 -119 10 -120 11 -612 25 -619 18z"/>
</g>
</svg>
